<svg xmlns="http://www.w3.org/2000/svg" width="501.333" height="157.333" viewBox="0 0 5222 1639" shape-rendering="geometricPrecision" text-rendering="geometricPrecision" image-rendering="optimizeQuality" fill-rule="evenodd" clip-rule="evenodd"><path d="M203 9c112 0 203 91 203 203s-91 203-203 203S0 324 0 212 91 9 203 9zm610 1013c-112 0-203-91-203-203s91-203 203-203 203 91 203 203-91 203-203 203zM1423 9c112 0 203 91 203 203s-91 203-203 203-203-91-203-203S1311 9 1423 9zM813 416c112 0 203-91 203-203S925 10 813 10s-203 91-203 203 91 203 203 203zm-610 606C91 1022 0 931 0 819s91-203 203-203 203 91 203 203-91 203-203 203zm0 200c-112 0-203 91-203 203s91 203 203 203 203-91 203-203-91-203-203-203zm610 0c112 0 203 91 203 203s-91 203-203 203-203-91-203-203 91-203 203-203zm610-200c112 0 203-91 203-203s-91-203-203-203-203 91-203 203 91 203 203 203zm-203 211h406l-203 385z" fill="#ed3237"/><path d="M2137 490V320h86c51 0 91-13 121-40s45-61 45-103-15-76-45-103-70-40-121-40h-203v455h117zm0-356h77c34 0 56 16 56 45s-22 45-56 45h-77v-90zm667 356V387h-234v-89h182v-99h-182v-62h229V34h-346v455h351zm190 0V317h47l129 173h134l-138-186c55-21 88-69 88-128 0-41-15-75-45-101-29-27-69-40-119-40h-214v455h117zm0-356h90c32 0 52 18 52 44 0 27-20 43-52 43h-90v-87zm524 365c55 0 99-13 134-40 34-27 52-62 52-107 0-39-12-70-37-91s-59-40-103-54c-19-6-49-14-62-18l-21-7c-14-6-19-12-19-21 0-20 20-30 60-30 26 0 53 5 81 13s52 19 72 31V63c-47-25-99-38-154-38-109 0-179 49-179 136 0 27 8 51 16 67 10 16 31 32 44 42 7 5 17 9 30 14l30 12 33 10 41 12c8 3 24 7 29 12 10 7 18 13 18 27 0 24-23 36-70 36-29 0-60-6-94-18-33-12-59-27-78-44v120c47 32 106 49 176 49zm392-144c-23-24-34-55-34-92s11-68 34-92 51-36 86-36c34 0 62 12 85 36s34 55 34 92-12 68-34 92c-23 24-51 36-85 36s-63-12-86-36zm257 75c45-46 68-102 68-168s-23-121-68-168c-45-46-103-69-172-69s-126 23-171 69-68 102-68 168 23 121 68 168c45 46 103 69 171 69 69 0 126-23 172-69zm262 60V239l201 251h97V35h-114v250L4414 35h-100v455h115zm-2292 707v-189h172v189h117V742h-117v162h-172V742h-117v455h117zm376-190c0 63 19 112 57 147 38 34 85 52 143 52s105-18 143-52c38-35 57-84 57-147V743h-117v270c0 58-34 86-83 86-47 0-83-28-83-86V743h-117v264zm602 190V946l201 251h97V742h-114v250l-199-250h-100v455h115zm620 0V845h137V742h-390v103h136v352h117zm556 0v-103h-234v-89h182v-99h-182v-62h229V741h-346v455h351zm190 0v-173h47l129 173h134l-138-186c55-21 88-69 88-128 0-41-15-75-45-101-29-27-69-40-119-40h-214v455h117zm0-356h90c32 0 52 18 52 44 0 27-20 43-52 43h-90v-87zm524 365c55 0 99-13 134-40 34-27 52-62 52-107 0-39-12-70-37-91s-59-40-103-54c-19-6-49-14-62-18l-21-7c-14-6-19-12-19-21 0-20 20-30 60-30 26 0 53 5 81 13s52 19 72 31V770c-47-25-99-38-154-38-109 0-179 49-179 136 0 27 8 51 16 67 10 16 31 32 44 42 7 5 17 9 30 14l30 12 33 10 41 12c8 3 24 7 29 12 10 7 18 13 18 27 0 24-23 36-70 36-29 0-60-6-94-18-33-12-59-27-78-44v120c47 32 106 49 176 49zm-3032 343c0 24 8 42 24 57s36 22 59 22 42-5 55-15v-28c-15 9-31 13-48 13-31 0-53-15-57-40h115v-9c0-27-9-52-32-68-11-8-24-12-39-12-23 0-41 8-56 23-14 15-21 34-21 56zm34-15c2-20 18-36 42-36 12 0 22 4 29 11s10 16 11 25h-81zm140-60l54 72-61 79h37l42-55 42 55h38l-61-79 54-71h-38l-36 46-35-46h-38zm166 75c0 24 8 42 24 57s36 22 59 22 42-5 55-15v-28c-15 9-31 13-48 13-31 0-53-15-57-40h115v-9c0-27-9-52-32-68-11-8-24-12-39-12-23 0-41 8-56 23-14 15-21 34-21 56zm34-15c2-20 18-36 42-36 12 0 22 4 29 11s10 16 11 25h-81zm222 94c18 0 34-4 48-12v-28c-13 8-27 11-43 11-15 0-28-5-38-14s-15-22-15-36 5-26 15-36c10-9 23-14 38-14 13 0 27 3 40 10v-28c-13-7-28-10-45-10-23 0-42 7-58 22s-24 34-24 57 8 42 24 57 35 22 57 22zm197-55c-9 14-26 24-42 24-20 0-35-9-35-39v-84h-33v92c0 39 20 62 56 62 22 0 40-8 55-24v20h33v-150h-33v99zm96 10c0 29 18 45 46 45 15 0 26-2 33-7v-28c-7 4-14 5-23 5-16 0-24-7-24-24v-71h47v-29h-47v-44h-33v44h-32v29h32v80zm153 41v-150h-33v150h33zm-17-177c11 0 20-9 20-21s-9-21-20-21c-12 0-21 9-21 21s9 21 21 21zm146 178l67-151h-35l-46 109-47-109h-36l67 151h30zm83-76c0 24 8 42 24 57s36 22 59 22 42-5 55-15v-28c-15 9-31 13-48 13-31 0-53-15-57-40h115v-9c0-27-9-52-32-68-11-8-24-12-39-12-23 0-41 8-56 23-14 15-21 34-21 56zm34-15c2-20 18-36 42-36 12 0 22 4 29 11s10 16 11 25h-81zm264 90v-92c7-16 26-29 49-29 3 0 6 0 9 1v-33h-3c-23 0-45 13-55 30v-26h-33v150h33zm78-75c0 24 8 42 24 57s36 22 59 22 42-5 55-15v-28c-15 9-31 13-48 13-31 0-53-15-57-40h115v-9c0-27-9-52-32-68-11-8-24-12-39-12-23 0-41 8-56 23-14 15-21 34-21 56zm34-15c2-20 18-36 42-36 12 0 22 4 29 11s10 16 11 25h-81zm222 94c18 0 34-4 48-12v-28c-13 8-27 11-43 11-15 0-28-5-38-14s-15-22-15-36 5-26 15-36c10-9 23-14 38-14 13 0 27 3 40 10v-28c-13-7-28-10-45-10-23 0-42 7-58 22s-24 34-24 57 8 42 24 57 35 22 57 22zm122-4v-92c7-16 26-29 49-29 3 0 6 0 9 1v-33h-3c-23 0-45 13-55 30v-26h-33v150h33zm196-51c-9 14-26 24-43 24-20 0-35-9-35-39v-84h-33v92c0 39 20 62 56 62 22 0 40-8 55-24v20h33v-150h-33v99zm116 51v-150h-33v150h33zm-17-177c11 0 20-9 20-21s-9-21-20-21c-12 0-21 9-21 21s9 21 21 21zm82 136c0 29 18 45 46 45 15 0 26-2 33-7v-28c-7 4-14 5-23 5-16 0-24-7-24-24v-71h47v-29h-47v-44h-33v44h-32v29h32v80zm151 41v-99c7-14 23-24 39-24 20 0 31 12 31 37v86h33v-98c6-14 23-25 39-25 20 0 31 12 31 37v86h33v-94c0-39-20-60-53-60-24 0-44 11-55 27-6-16-24-27-47-27-22 0-38 8-50 24v-20h-33v150h33zm238-75c0 24 8 42 24 57s36 22 59 22 42-5 55-15v-28c-15 9-31 13-48 13-31 0-53-15-57-40h115v-9c0-27-9-52-32-68-11-8-24-12-39-12-23 0-41 8-56 23-14 15-21 34-21 56zm34-15c2-20 18-36 42-36 12 0 22 4 29 11s10 16 11 25h-81zm185-8c9-14 26-24 42-24 20 0 35 9 35 39v84h33v-92c0-39-20-62-56-62-22 0-40 8-55 24v-20h-33v150h33v-99zm170 58c0 29 18 45 46 45 15 0 26-2 33-7v-28c-7 4-14 5-23 5-16 0-24-7-24-24v-71h47v-29h-47v-44h-33v44h-32v29h32v80z" fill="#606062" fill-rule="nonzero"/></svg>